<?xml version="1.0" encoding="UTF-8" standalone="no"?>
<!-- Created with Inkscape (http://www.inkscape.org/) -->

<svg
   version="1.1"
   id="svg1"
   width="853.33331"
   height="853.33331"
   viewBox="0 0 853.33331 853.33331"
   sodipodi:docname="favicon.svg"
   inkscape:version="1.3 (0e150ed6c4, 2023-07-21)"
   xmlns:inkscape="http://www.inkscape.org/namespaces/inkscape"
   xmlns:sodipodi="http://sodipodi.sourceforge.net/DTD/sodipodi-0.dtd"
   xmlns="http://www.w3.org/2000/svg"
   xmlns:svg="http://www.w3.org/2000/svg">
  <defs
     id="defs1" />
  <sodipodi:namedview
     id="namedview1"
     pagecolor="#ffffff"
     bordercolor="#000000"
     borderopacity="0.25"
     inkscape:showpageshadow="2"
     inkscape:pageopacity="0.0"
     inkscape:pagecheckerboard="0"
     inkscape:deskcolor="#d1d1d1"
     inkscape:zoom="0.90468752"
     inkscape:cx="454.85319"
     inkscape:cy="358.13471"
     inkscape:window-width="1440"
     inkscape:window-height="890"
     inkscape:window-x="-6"
     inkscape:window-y="-6"
     inkscape:window-maximized="1"
     inkscape:current-layer="g1" />
  <g
     inkscape:groupmode="layer"
     id="layer1"
     inkscape:label="background">
    <rect
       style="fill:#ffffff;stroke-width:1000;stroke-linejoin:round;paint-order:markers stroke fill"
       id="rect1"
       width="885.38861"
       height="883.17786"
       x="-11.05354"
       y="-13.264249" />
  </g>
  <g
     inkscape:groupmode="layer"
     inkscape:label="Image"
     id="g1">
    <path
       style="fill:none;fill-opacity:0.0643154;stroke:#000000;stroke-width:12.473;stroke-dasharray:none;stroke-opacity:1;paint-order:normal"
       d="m 3.1316341,650.63381 c -2.18177674,-2.18178 -1.6538515,-201.42038 0.5301381,-200.0706 4.6649981,2.88313 45.7291198,79.22052 55.4827088,103.14125 2.269043,5.56487 2.588729,15.46998 1.679569,52.03907 l -1.122901,45.16596 -27.604366,0.54256 C 16.914389,651.75044 3.8800761,651.38228 3.1316341,650.63381 Z M 110.39389,648.70415 c -0.67267,-1.75297 -0.6875,-23.02389 -0.033,-47.2687 l 1.19014,-44.08148 10.1993,-19.00746 c 12.59926,-23.48006 42.26123,-73.05982 55.13436,-92.1567 l 9.59717,-14.2371 h 23.50501 c 27.74063,0 28.23444,0.6567 7.77529,10.34009 -83.22328,39.38984 -85.97379,161.36357 -4.5091,199.96004 7.76961,3.68111 14.1763,7.35568 14.2371,8.16572 0.25395,3.38431 -115.79177,1.68526 -117.09635,-1.71441 z m 172.19152,1.71105 c 0,-0.81191 4.01294,-3.60504 8.91764,-6.20698 66.83633,-35.45659 74.21658,-184.08914 10.27344,-206.8988 -1.37461,-0.49035 -2.04796,-1.3902 -1.49635,-1.9997 1.07331,-1.18588 73.08582,2.35269 74.40457,3.65611 0.43202,0.42701 -1.98857,14.35573 -5.37907,30.95274 -20.44256,100.06898 -8.00415,149.35665 43.72356,173.25632 8.18005,3.77943 14.87282,7.28675 14.87282,7.79408 0,0.50732 -32.69624,0.9224 -72.6583,0.9224 -39.96207,0 -72.65831,-0.66428 -72.65831,-1.47617 z M 473.068,649.92763 c 0,-1.08005 0.90342,-1.96375 2.0076,-1.96375 4.49469,0 19.43957,-16.46148 23.66323,-26.06458 5.19011,-11.80044 5.96905,-30.4053 3.01958,-72.12231 -3.03147,-42.87674 5.57209,-102.11437 14.8309,-102.11437 3.06467,0 5.57213,0.5533 5.57213,1.22956 0,0.67626 -1.42082,9.56505 -3.15741,19.75287 -3.76942,22.11366 -4.91923,20.56771 16.38088,22.0244 l 17.21448,1.17728 1.28207,41.23849 c 1.42529,45.84498 4.86915,64.51979 18.32216,99.35403 3.79843,9.83538 6.90623,18.23567 6.90623,18.66732 0,0.43164 -23.85941,0.7848 -53.02093,0.7848 -34.03812,0 -53.02092,-0.70308 -53.02092,-1.96374 z m 155.40105,-1.47279 c -13.38904,-25.05865 -23.84064,-73.3828 -25.21131,-116.56752 -1.29329,-40.74641 -2.89962,-38.07685 22.91176,-38.07685 h 18.58546 l 1.30868,-7.85496 c 0.71977,-4.32023 1.93161,-13.87015 2.693,-21.22205 l 1.38433,-13.3671 6.21388,0.6028 c 4.17656,0.40517 6.08368,1.56856 5.81681,3.54841 -8.87277,65.8234 -3.65777,126.91458 15.25861,178.74666 3.05384,8.36774 5.0095,15.75702 4.3459,16.42061 -3.24369,3.2437 -51.46021,1.22664 -53.30712,-2.23 z m 103.61584,-1.96375 c -4.2402,-11.09917 -13.7737,-52.365 -14.91074,-64.54123 l -1.17905,-12.62632 36.11812,0.53635 36.11812,0.53635 3.29356,27.49232 c 1.81145,15.1208 4.15247,32.79444 5.20223,39.27477 2.52845,15.60829 4.39479,14.72804 -31.22667,14.72804 H 734.14795 Z M 235.22453,594.31282 c -33.9605,-12.69608 -48.00798,-48.78686 -32.32367,-83.0459 19.46435,-42.51578 76.75149,-51.05407 95.53333,-14.23864 23.95183,46.94946 -19.39553,113.6644 -63.20966,97.28454 z m 193.01,0.59602 C 402.74816,589.0702 398.69541,528.76737 418.48606,449.8567 l 2.1585,-8.60647 21.76438,1.37718 c 26.51522,1.67781 24.41861,-1.06332 19.29625,25.22812 -6.54234,33.57969 -8.79505,60.43506 -7.37284,87.89492 1.84463,35.61654 -3.9044,44.24265 -26.09782,39.15839 z m 285.8823,-69.82996 c -1.72347,-1.73782 -1.5716,-41.25826 0.22953,-59.72631 l 1.24328,-12.74797 8.83681,-1.25476 c 4.86026,-0.6901 21.06118,-1.58112 36.00204,-1.98005 l 27.16522,-0.72531 -0.24307,37.22664 c -0.13374,20.47465 -0.72198,37.70645 -1.3073,38.2929 -1.68835,1.69157 -70.29082,2.56416 -71.92651,0.91486 z M 88.236166,496.41939 C 87.158561,493.90442 81.788304,480.8007 76.302275,467.3 70.816221,453.7993 65.883398,441.74417 65.340419,440.51082 c -1.020643,-2.3183 6.643212,-3.30949 44.926981,-5.81057 10.53055,-0.68797 19.14644,-0.77729 19.14644,-0.19852 0,2.64956 -35.295895,65.18282 -37.137957,65.79684 -1.14423,0.38141 -2.962112,-1.36423 -4.039717,-3.87918 z M 584.49675,420.21061 c -26.73875,-0.68494 -49.42636,-2.0788 -50.41691,-3.0975 -1.09652,-1.12768 0.41454,-12.52809 3.86301,-29.14499 12.47273,-60.10166 14.99928,-118.9597 6.96298,-162.2079 -1.70591,-9.18047 -3.10285,-18.23821 -3.10431,-20.12831 -0.002,-3.19632 4.10065,-3.43654 58.69657,-3.43654 h 58.69924 l 1.10564,4.4184 c 2.31204,9.23955 7.17487,51.22136 6.06267,52.34009 -0.64073,0.64448 -15.45423,1.61363 -32.91888,2.15364 l -31.75392,0.98188 v 14.72803 14.72803 l 22.50925,0.55916 c 26.56833,0.65998 25.18652,-0.73551 23.20838,23.43814 -2.38687,29.16841 -1.03385,27.81315 -28.42265,28.46978 l -23.10321,0.55385 -2.27589,13.74616 c -2.95524,17.84927 -5.01374,16.69177 29.68523,16.69177 35.65905,0 33.66331,-1.76331 26.61678,23.51712 -5.52271,19.81348 -7.93671,23.86403 -13.85248,23.24348 -1.62009,-0.16993 -24.82276,-0.86936 -51.5615,-1.55429 z m 78.38131,-1.51313 c -0.49739,-0.81004 0.34092,-8.54226 1.86289,-17.18271 10.40297,-59.05905 13.19999,-88.04194 13.83441,-143.35288 l 0.63068,-54.98465 39.79292,-0.55544 c 59.82758,-0.83511 77.85114,4.90121 104.65215,33.30734 61.89675,65.60373 16.20053,171.32336 -78.75466,182.20135 -20.29631,2.32513 -80.68257,2.74257 -82.01839,0.56699 z m 93.52965,-53.52321 c 60.78287,-22.74178 49.73636,-106.0305 -14.06273,-106.0305 h -11.49542 l -1.39822,24.05579 c -0.76903,13.23069 -2.91595,38.00847 -4.77095,55.06172 -1.855,17.05325 -2.89193,31.50609 -2.30426,32.11741 2.0072,2.08807 23.20506,-1.1537 34.03158,-5.20442 z m -312.79578,47.33705 c -10.2929,-1.37195 -10.01436,1.49577 -3.20326,-32.97813 7.549,-38.20881 9.92021,-69.05566 7.33483,-95.41829 -2.57964,-26.30382 -1.3355,-24.9178 -23.6652,-26.36447 -15.98745,-1.03579 -18.33428,-1.6629 -19.80081,-5.29114 -3.30286,-8.1713 -14.20763,-48.43364 -13.35016,-49.2911 1.59605,-1.59603 133.75369,-1.20453 135.26026,0.40072 1.87067,1.99315 7.03136,27.24502 8.83434,43.22744 l 1.37623,12.19929 -19.17341,0.56499 -19.1734,0.56501 0.36236,32.40168 c 0.43319,38.73585 -8.31186,104.20357 -15.80434,118.31521 -1.92709,3.62958 -18.85284,4.35388 -38.99744,1.66879 z M 69.218781,406.36806 C 39.661632,401.05022 13.731047,381.52206 6.5872526,359.20064 3.039204,348.1145 -0.36411709,218.82419 2.5830049,207.08188 l 1.2264453,-4.88651 H 30.150164 c 30.480149,0 26.980584,-3.0735 31.303543,27.49233 4.4818,31.68885 5.186859,39.55724 6.921739,77.24607 1.838024,39.92914 3.135732,43.47983 17.599291,48.15334 17.995303,5.81469 35.681453,-2.50214 38.618953,-18.16041 3.04705,-16.24224 -5.52628,-85.36401 -14.63244,-117.97259 -4.91179,-17.58894 -6.07324,-16.75874 23.44554,-16.75874 h 25.36226 l 2.95899,5.72202 c 15.74175,30.44122 27.17203,117.79682 19.06184,145.67983 -10.47273,36.00556 -64.01047,61.32781 -111.571099,52.77084 z m 280.133719,0.25206 c -10.29828,-1.37267 -10.10456,-0.24398 -4.75218,-27.68834 8.92406,-45.75815 4.70084,-108.86529 -10.17644,-152.06521 -3.74312,-10.86902 -6.99661,-20.64554 -7.23,-21.7256 -0.26166,-1.21083 9.5841,-2.17403 25.68011,-2.51224 l 26.10447,-0.54854 4.03465,9.12101 c 20.49803,46.33914 23.4771,136.79454 6.38101,193.75012 -1.09285,3.64086 -19.49303,4.40772 -40.04162,1.6688 z m -90.33194,-4.02874 -30.43795,-1.07661 0.22,-10.80055 c 0.89146,-43.76712 3.55206,-82.47701 5.66882,-82.47701 6.17293,0 62.85043,84.72147 61.47061,91.88623 -0.75881,3.94027 1.13172,3.8139 -36.92148,2.46794 z m 23.17359,-111.37241 c -19.77303,-24.80866 -56.36473,-64.78397 -69.92553,-76.39151 -13.78569,-11.80005 -12.64996,-12.37733 25.64176,-13.03349 18.63096,-0.31926 35.35509,0.0781 37.16474,0.88313 10.21549,4.54417 34.88259,102.53819 27.63523,109.78553 -1.35046,1.35045 -7.97678,-5.51081 -20.5162,-21.24366 z"
       id="path1" />
  </g>
</svg>
