<?xml version="1.0" encoding="UTF-8" standalone="no"?>
<!-- Created with Inkscape (http://www.inkscape.org/) -->

<svg
   version="1.1"
   id="svg1"
   width="128"
   height="64"
   viewBox="0 0 128 64"
   sodipodi:docname="uyagLogoZoomB&amp;W_128x64.svg"
   inkscape:version="1.3 (0e150ed6c4, 2023-07-21)"
   xmlns:inkscape="http://www.inkscape.org/namespaces/inkscape"
   xmlns:sodipodi="http://sodipodi.sourceforge.net/DTD/sodipodi-0.dtd"
   xmlns="http://www.w3.org/2000/svg"
   xmlns:svg="http://www.w3.org/2000/svg">
  <defs
     id="defs1" />
  <sodipodi:namedview
     id="namedview1"
     pagecolor="#ffffff"
     bordercolor="#000000"
     borderopacity="0.25"
     inkscape:showpageshadow="2"
     inkscape:pageopacity="0.0"
     inkscape:pagecheckerboard="0"
     inkscape:deskcolor="#d1d1d1"
     inkscape:zoom="5.1176854"
     inkscape:cx="135.31508"
     inkscape:cy="72.884511"
     inkscape:window-width="1920"
     inkscape:window-height="1010"
     inkscape:window-x="2873"
     inkscape:window-y="-6"
     inkscape:window-maximized="1"
     inkscape:current-layer="g1" />
  <g
     inkscape:groupmode="layer"
     id="layer1"
     inkscape:label="background" />
  <g
     inkscape:groupmode="layer"
     inkscape:label="Image"
     id="g1">
    <path
       style="fill:#ffffff;stroke-width:0.20808"
       d="M 0.31653091,63.523196 C 0.00828538,63.214949 0.08287166,35.066145 0.39142982,35.256844 1.0505095,35.664179 6.8521258,46.449268 8.2301312,49.828834 c 0.3205746,0.786216 0.3657405,2.185628 0.2372926,7.352178 l -0.1586456,6.381132 -3.8999966,0.07665 c -2.1449973,0.04216 -3.9865094,-0.0099 -4.09225069,-0.1156 z M 15.470744,63.250569 c -0.09504,-0.247663 -0.09713,-3.252858 -0.0047,-6.678211 l 0.168145,-6.227914 1.440976,-2.68541 c 1.780048,-3.317307 5.970747,-10.322029 7.789487,-13.020072 l 1.355906,-2.011444 h 3.320832 c 3.919249,0 3.989014,0.09278 1.098508,1.460867 -11.757942,5.565071 -12.146539,22.797749 -0.637055,28.250731 1.097705,0.520074 2.002855,1.039225 2.011445,1.153668 0.03588,0.478141 -16.359279,0.238097 -16.543593,-0.242215 z m 24.327542,0.24174 c 0,-0.114708 0.566956,-0.509326 1.259901,-0.876934 9.442763,-5.009373 10.485458,-26.008459 1.451451,-29.231051 -0.194208,-0.06928 -0.28934,-0.19641 -0.211407,-0.282521 0.151639,-0.167543 10.325702,0.332392 10.512017,0.516542 0.06103,0.06033 -0.280948,2.028204 -0.759965,4.373061 -2.888163,14.137934 -1.130841,21.101389 6.177348,24.477979 1.155692,0.533965 2.101259,1.029486 2.101259,1.101162 0,0.07167 -4.619386,0.130319 -10.265301,0.130319 -5.645916,0 -10.265303,-0.09385 -10.265303,-0.208557 z m 26.911739,-0.06889 c 0,-0.152591 0.127637,-0.277441 0.283638,-0.277441 0.635018,0 2.746458,-2.32571 3.343185,-3.682453 0.733268,-1.667189 0.843318,-4.295719 0.426612,-10.189576 -0.428292,-6.057706 0.787235,-14.42691 2.095337,-14.42691 0.432983,0 0.787241,0.07817 0.787241,0.173714 0,0.09555 -0.200736,1.351369 -0.446084,2.790723 -0.532551,3.124259 -0.694998,2.905845 2.314321,3.111648 l 2.432094,0.166329 0.181134,5.826251 c 0.201367,6.477065 0.687922,9.115477 2.588589,14.036924 0.536649,1.389562 0.975725,2.57637 0.975725,2.637354 0,0.06098 -3.370903,0.110879 -7.490897,0.110879 -4.80897,0 -7.490895,-0.09934 -7.490895,-0.277442 z m 21.955352,-0.208078 c -1.891629,-3.540333 -3.36825,-10.36766 -3.561901,-16.468878 -0.182718,-5.75673 -0.409663,-5.379569 3.237017,-5.379569 h 2.625789 l 0.184893,-1.109764 c 0.101688,-0.61037 0.272901,-1.959601 0.380471,-2.998291 l 0.195581,-1.888529 0.877908,0.08516 c 0.590073,0.05725 0.859514,0.221609 0.82181,0.501327 -1.253561,9.299653 -0.516776,17.93073 2.155766,25.253664 0.431452,1.18221 0.707751,2.226181 0.613997,2.319934 -0.458275,0.458277 -7.270395,0.173303 -7.531331,-0.315058 z m 14.639043,-0.277442 c -0.59907,-1.568111 -1.94598,-7.398226 -2.10662,-9.118507 l -0.16658,-1.78387 5.10284,0.07578 5.10284,0.07578 0.46531,3.884167 c 0.25593,2.136296 0.58667,4.633261 0.73499,5.548814 0.35722,2.205168 0.6209,2.080805 -4.41177,2.080805 h -4.42954 z M 33.107052,55.56606 c -4.798003,-1.793727 -6.782658,-6.892699 -4.566749,-11.732882 2.74996,-6.006709 10.843595,-7.213014 13.497129,-2.011661 3.38396,6.633108 -2.740238,16.05872 -8.93038,13.744543 z m 27.268816,0.08421 C 56.775105,54.825373 56.202525,46.305675 58.998586,35.157027 l 0.304957,-1.215937 3.074912,0.19457 c 3.74612,0.237044 3.449908,-0.150228 2.726211,3.564276 -0.924315,4.744202 -1.242582,8.538379 -1.041649,12.417959 0.260613,5.031972 -0.551621,6.250685 -3.687149,5.532371 z m 40.389992,-9.865707 c -0.2435,-0.245523 -0.22204,-5.829045 0.0324,-8.438246 l 0.17565,-1.801057 1.24848,-0.177275 c 0.68667,-0.0975 2.97557,-0.223384 5.08644,-0.279745 l 3.83795,-0.102476 -0.0344,5.25945 c -0.0189,2.892697 -0.10204,5.327238 -0.18471,5.410094 -0.23853,0.238987 -9.93081,0.362268 -10.1619,0.129253 z M 12.34026,41.735492 C 12.188013,41.380172 11.429293,39.528854 10.654217,37.621449 9.8791365,35.714045 9.182218,34.010873 9.105505,33.836624 8.9613066,33.50909 10.04407,33.369053 15.452874,33.015696 c 1.487775,-0.0972 2.705044,-0.109817 2.705044,-0.02805 0,0.374335 -4.98667,9.209152 -5.24692,9.295901 -0.161659,0.05388 -0.418493,-0.192741 -0.570738,-0.548057 z M 82.452889,30.968573 c -3.777701,-0.09677 -6.98305,-0.293698 -7.122996,-0.437622 -0.154919,-0.15932 0.05857,-1.769991 0.545773,-4.117658 1.76217,-8.491276 2.119126,-16.806851 0.983743,-22.9170381 -0.241014,-1.297034 -0.438376,-2.57672855 -0.438583,-2.84376543 -2.83e-4,-0.45158209 0.579347,-0.48552083 8.292762,-0.48552083 h 8.293139 l 0.156207,0.62423986 c 0.326649,1.305381 1.013679,7.23665 0.856545,7.3947063 -0.09052,0.091053 -2.183403,0.2279767 -4.650842,0.3042704 L 84.882384,8.628907 v 2.080804 2.080804 l 3.180149,0.079 c 3.753623,0.09324 3.558399,-0.103912 3.278924,3.311385 -0.337222,4.120967 -0.146065,3.929494 -4.015606,4.022264 l -3.264064,0.07825 -0.321542,1.942084 c -0.417523,2.521779 -0.708352,2.358245 4.193984,2.358245 5.037978,0 4.756016,-0.249124 3.760469,3.322543 -0.780259,2.799286 -1.121313,3.371555 -1.957104,3.283883 -0.22889,-0.024 -3.507007,-0.122826 -7.284705,-0.219593 z m 11.073858,-0.213778 c -0.07027,-0.114445 0.04817,-1.206868 0.263193,-2.427606 1.46975,-8.343974 1.864919,-12.438731 1.954551,-20.2531651 l 0.0891,-7.76833483 5.622019,-0.0784736 c 8.45256,-0.11798591 10.99896,0.69245217 14.78546,4.70572363 8.74489,9.2686189 2.28884,24.2048869 -11.12661,25.7417499 -2.8675,0.328498 -11.39899,0.387475 -11.587717,0.08011 z M 106.7408,23.192934 c 8.58751,-3.213001 7.02684,-14.9801883 -1.98682,-14.9801883 h -1.62409 l -0.19754,3.3986473 c -0.10866,1.869257 -0.41198,5.369908 -0.67405,7.779223 -0.26208,2.409315 -0.40858,4.45124 -0.32555,4.537609 0.28358,0.295006 3.27845,-0.162997 4.80805,-0.735291 z m -44.192384,6.687867 c -1.4542,-0.19383 -1.414847,0.211326 -0.452563,-4.659212 1.066537,-5.398212 1.401546,-9.756313 1.036279,-13.480876 C 62.767676,8.0244608 62.94345,8.2202802 59.788668,8.015892 57.529931,7.8695536 57.198366,7.7809543 56.991172,7.2683498 56.524538,6.1138931 54.983891,0.42555403 55.105036,0.30441048 55.330529,0.07892035 74.002009,0.13423221 74.21486,0.36102496 74.479152,0.64262095 75.208264,4.2102526 75.462992,6.468279 l 0.194437,1.7235386 -2.708856,0.079823 -2.708853,0.079826 0.05119,4.5777714 c 0.0612,5.472674 -1.174315,14.722076 -2.232867,16.715795 -0.272263,0.512794 -2.663564,0.615124 -5.509632,0.23577 z M 9.6534472,29.01287 C 5.4775576,28.261556 1.8140358,25.502581 0.80474719,22.348969 0.30347221,20.782698 -0.1773554,2.5163196 0.23901954,0.85734395 L 0.41229405,0.16696864 H 4.1337595 c 4.3062928,0 3.8118677,-0.43422987 4.4226235,3.88416806 0.6331971,4.4770603 0.7328091,5.5887212 0.9779163,10.9134703 0.2596795,5.641264 0.4430221,6.142912 2.4864607,6.803194 2.542411,0.82151 5.041143,-0.353506 5.456159,-2.565736 C 17.907411,16.90733 16.696155,7.1416764 15.409621,2.534675 14.715673,0.04967642 14.551582,0.16696864 18.72205,0.16696864 h 3.583228 L 22.72333,0.97538638 C 24.947354,5.2761792 26.562245,17.617943 25.416423,21.557307 23.936815,26.64424 16.372903,30.221815 9.6534472,29.01287 Z M 49.231266,29.04848 C 47.776305,28.854549 47.803675,29.014012 48.559869,25.136622 49.820677,18.671824 49.224013,9.7559281 47.122122,3.6525621 46.593287,2.1169666 46.133629,0.73572145 46.100655,0.58312854 46.063687,0.4120602 47.454714,0.2759775 49.728789,0.22819455 L 53.416878,0.15069579 53.9869,1.4393292 c 2.896001,6.5468808 3.316889,19.3265898 0.901522,27.3733818 -0.154401,0.514387 -2.754012,0.622731 -5.657156,0.235771 z M 36.469,28.479295 32.168669,28.32719 l 0.03108,-1.525923 c 0.125947,-6.1835 0.501842,-11.652507 0.800902,-11.652507 0.872122,0 8.879626,11.969609 8.684683,12.98186 -0.107206,0.556689 0.159891,0.538835 -5.216336,0.348675 z M 39.743008,12.744391 C 36.949437,9.2393761 31.779693,3.5915892 29.863798,1.9516541 27.91613,0.28452081 28.076588,0.20296161 33.486514,0.11025809 c 2.632218,-0.04510565 4.995034,0.0110341 5.250705,0.12477026 1.443263,0.64200888 4.928278,14.48678865 3.904356,15.51070665 -0.190795,0.190794 -1.126974,-0.778578 -2.898567,-3.001344 z"
       id="path1" />
  </g>
</svg>
